# xmcd
#
# Track frame offsets:
#	150
#	37734
#	89411
#	120681
#	152899
#	174465
#	200208
#	241031
#	251524
#	279857
#	313654
#
# Disc length: 4470 seconds
#
# Revision: 1
# Processed by: cddbd v1.5.2PL0 Copyright (c) Steve Scherf et al.
# Submitted via: audiograbber 1.83.01
#
DISCID=8c11740b
DTITLE=Grateful Dead - 82-08-03 Starlight Theatre, Kansas City MO
DYEAR=1900
DGENRE=
TTITLE0=Mississippi Half-Step
TTITLE1=Franklin's Tower
TTITLE2=Minglewood Blues
TTITLE3=Peggy-O
TTITLE4=El Paso
TTITLE5=Cumberland Blues
TTITLE6=Althea
TTITLE7=Cassidy
TTITLE8=Big Railroad Blues
TTITLE9=Men Smart, Women Smarter
TTITLE10=Might As Well
EXTD=
EXTT0=
EXTT1=
EXTT2=
EXTT3=
EXTT4=
EXTT5=
EXTT6=
EXTT7=
EXTT8=
EXTT9=
EXTT10=
PLAYORDER=
